<?xml version="1.0" encoding="UTF-8" standalone="no"?>
<svg
   width="4.8744898mm"
   height="2.6779583mm"
   viewBox="0 0 487.44898 267.79583"
   version="1.1"
   stroke-width="28.222"
   stroke-linejoin="round"
   xml:space="preserve"
   id="svg4"
   sodipodi:docname="nuvem.svg"
   inkscape:version="1.1.1 (3bf5ae0d25, 2021-09-20)"
   xmlns:inkscape="http://www.inkscape.org/namespaces/inkscape"
   xmlns:sodipodi="http://sodipodi.sourceforge.net/DTD/sodipodi-0.dtd"
   xmlns="http://www.w3.org/2000/svg"
   xmlns:svg="http://www.w3.org/2000/svg"><defs
   id="defs8" /><sodipodi:namedview
   id="namedview6"
   pagecolor="#ffffff"
   bordercolor="#999999"
   borderopacity="1"
   inkscape:pageshadow="0"
   inkscape:pageopacity="0"
   inkscape:pagecheckerboard="0"
   inkscape:document-units="mm"
   showgrid="false"
   fit-margin-top="0"
   fit-margin-left="0"
   fit-margin-right="0"
   fit-margin-bottom="0"
   inkscape:zoom="32"
   inkscape:cx="7.3125"
   inkscape:cy="7.828125"
   inkscape:window-width="1600"
   inkscape:window-height="847"
   inkscape:window-x="-8"
   inkscape:window-y="-8"
   inkscape:window-maximized="1"
   inkscape:current-layer="svg4" />
 <path
   style="fill:#f9383f;fill-opacity:1"
   d="m 282.88082,266.74355 c -3.64229,-0.6725 -6.79783,-1.04723 -7.01232,-0.83274 -0.2145,0.21449 -2.93972,-0.51862 -6.05606,-1.62914 -3.11634,-1.11053 -6.56607,-2.1557 -7.66607,-2.3226 -1.87908,-0.28512 -14.79213,-5.96246 -20.65429,-9.08085 -3.36845,-1.79185 -5.62601,-1.77501 -9.16008,0.0683 -1.5479,0.80736 -5.5979,2.02714 -9,2.71061 -3.4021,0.68347 -6.41997,1.56727 -6.70639,1.96401 -0.28642,0.39673 -7.45249,0.98884 -15.9246,1.31578 -15.21771,0.58726 -32.40199,-1.09291 -37.3348,-3.65036 -0.97909,-0.50762 -3.07993,-1.08744 -4.66854,-1.28849 -4.55571,-0.57655 -25.0524,-10.52111 -29.13004,-14.13328 -0.86831,-0.76919 -1.9643,-1.39852 -2.43555,-1.39852 -0.47124,0 -1.8281,-0.91248 -3.01523,-2.02773 l -2.15842,-2.02773 -5.86444,4.55384 c -7.32327,5.68663 -16.769358,10.22804 -26.254188,12.62225 -8.84067,2.2316 -25.13367,2.73892 -30.51043,0.95 -2.09935,-0.69848 -4.05992,-1.02704 -4.35682,-0.73014 -0.29689,0.29689 -3.07924,-0.60553 -6.18299,-2.0054 -3.10376,-1.39986 -6.99319,-2.94081 -8.64319,-3.42434 -5.06169,-1.48331 -20.62425,-14.51835 -24.76969,-20.74682 -2.07333,-3.11516 -4.62341,-6.67264 -5.6668402,-7.90552 -1.04343,-1.23287 -2.66911,-4.60787 -3.61262,-7.5 -0.94352,-2.89212 -2.13525,-5.78983 -2.64829,-6.43934 -0.51304,-0.64952 -1.18948,-3.79952 -1.50319,-7 -0.3137,-3.20049 -0.94621005,-6.29929 -1.40557005,-6.88622 -1.32068,-1.68748 -0.0541,-17.9283 2.01076005,-25.78402 2.7291,-10.38253 8.5417802,-21.88186 14.1782702,-28.04908 2.70444,-2.95909 4.91717,-5.78413 4.91717,-6.27787 0,-0.49373 3.0375,-2.87811 6.75,-5.29862 3.7125,-2.4205 6.99175,-4.75007 7.28722,-5.17681 0.29546,-0.42674 3.67046,-1.95516 7.5,-3.39649 3.82953,-1.44133 7.41278,-2.97544 7.96278,-3.40913 0.55,-0.4337 3.25,-1.09302 6,-1.46516 11.94008,-1.61578 11.25808,-1.22583 12.10587,-6.92184 0.42189,-2.83461 0.66611,-5.542498 0.54271,-6.017538 -0.12341,-0.47504 0.52793,-3.40004 1.44742,-6.5 0.91949,-3.09996 1.79482,-6.62972 1.94519,-7.84391 0.15037,-1.2142 1.44012,-4.75608 2.8661,-7.87085 1.42599,-3.11477 2.59271,-6.40115 2.59271,-7.30305 0,-0.90191 2.03448,-4.67253 4.52107,-8.37916 2.48658,-3.70663 4.24658,-6.73932 3.9111,-6.73932 -0.33547,0 0.55505,-1.38453 1.97894,-3.07673 1.42389,-1.6922 2.58889,-3.38137 2.58889,-3.75372 0,-1.40067 15.738858,-17.16776 21.499998,-21.53856 3.3,-2.50361 6.69917,-5.23049 7.55372,-6.05973 0.85455,-0.82924 4.22955,-2.69082 7.5,-4.13683 3.27045,-1.44601 6.17128,-2.95714 6.44628,-3.35807 0.275,-0.40092 3.65,-1.8110899 7.5,-3.1337099 3.85,-1.32262 7.225,-2.68841 7.5,-3.0351 0.88294,-1.11312 29.79338,-6.03645002 31.11576,-5.29889002 0.33867,0.18889 4.16367,0.39525 8.5,0.45857 4.33633,0.0633 9.86066,0.54032002 12.27628,1.06001002 2.41562,0.51969 5.56562,1.10222 7,1.29452 6.12398,0.821 19.00281,5.00681 23.85796,7.7541999 2.8875,1.63395 5.25,2.67058 5.25,2.30362 0,-0.36696 2.1375,0.8629 4.75,2.73301 2.6125,1.87012 5.425,3.72998 6.25,4.13303 3.88335,1.89719 6.22162,3.71477 14.34984,11.15438 l 8.74049,8 5.20484,-0.35715 c 2.86265,-0.19643 5.45581,-0.758 5.76257,-1.24793 0.58259,-0.93049 18.38549,-1.24423 28.03018,-0.49398 3.07336,0.23907 7.57336,0.97187 10,1.62844 2.42664,0.65657 5.53708,1.32818 6.91208,1.49246 4.25655,0.50859 19.76526,6.30488 23.96785,8.95786 2.19582,1.38616 4.41094,2.5203 4.92248,2.5203 0.51154,0 3.10798,1.68928 5.76987,3.75396 2.66189,2.06469 6.07037,4.38702 7.5744,5.16074 1.50404,0.77373 7.2212,6.06801 12.70481,11.76508 l 9.97021,10.35831 4.29519,-0.67087 c 2.36235,-0.36897 4.54323,-1.04685 4.84638,-1.50639 0.646,-0.97923 22.13642,-1.48095 23.63966,-0.5519 0.56192,0.34728 2.9398,0.87243 5.28417,1.16698 2.34438,0.29456 6.29729,1.43564 8.78425,2.53574 2.48695,1.1001 5.62252,2.19979 6.96792,2.44376 1.3454,0.24398 2.96967,0.83676 3.6095,1.31731 12.69418,9.53416 20.04014,16.156538 22.79967,20.553918 1.78558,2.84535 3.98079,5.90426 4.87824,6.79758 2.62144,2.60934 7.73716,16.75262 8.92437,24.67292 2.21789,14.79639 0.0802,31.34586 -5.45122,42.20286 -1.26097,2.475 -2.86321,5.73862 -3.56052,7.25249 -0.69732,1.51386 -3.88926,5.56386 -7.0932,9 -3.20393,3.43613 -5.82729,6.54977 -5.82968,6.91921 -0.002,0.36943 -2.81685,2.48337 -6.25435,4.69763 -3.4375,2.21426 -6.7,4.40022 -7.25,4.85768 -1.43734,1.19551 -11.52862,5.27299 -13.05002,5.27299 -0.70582,0 -1.43331,0.43681 -1.61665,0.9707 -0.49464,1.44044 -18.84371,3.2261 -27.12995,2.64017 -3.96186,-0.28014 -9.2225,-1.22485 -11.6903,-2.09934 -3.56575,-1.26357 -4.56909,-1.32531 -4.88715,-0.30076 -0.22013,0.70908 -3.71351,4.63718 -7.76308,8.72911 -4.04957,4.09193 -7.36285,7.74823 -7.36285,8.1251 0,0.37687 -3.35812,3.00669 -7.46249,5.84404 -4.10436,2.83734 -8.1261,5.82242 -8.93718,6.6335 -0.81108,0.81109 -3.63143,2.39919 -6.26745,3.52911 -2.63601,1.12993 -5.02678,2.40925 -5.31281,2.84293 -0.28604,0.43368 -3.67007,1.81522 -7.52007,3.07009 -3.85,1.25486 -7.45,2.6314 -8,3.05897 -0.55,0.42758 -2.8,1.0871 -5,1.46561 -2.2,0.37851 -6.7,1.36553 -10,2.19337 -7.52441,1.8876 -27.44503,2.20326 -36.26555,0.57468 z"
   id="path1020" /><path
   style="fill:#000000"
   id="path1000"
   d="" /><path
   style="fill:#000000"
   id="path980"
   d="" />
</svg>
