<?xml version="1.0" encoding="UTF-8" standalone="no"?>
<svg
   width="4.8677173mm"
   height="2.6742377mm"
   viewBox="0 0 486.77173 267.42378"
   version="1.1"
   stroke-width="28.222"
   stroke-linejoin="round"
   xml:space="preserve"
   id="svg4"
   sodipodi:docname="nuvem-upsidedown.svg"
   inkscape:version="1.1.1 (3bf5ae0d25, 2021-09-20)"
   xmlns:inkscape="http://www.inkscape.org/namespaces/inkscape"
   xmlns:sodipodi="http://sodipodi.sourceforge.net/DTD/sodipodi-0.dtd"
   xmlns="http://www.w3.org/2000/svg"
   xmlns:svg="http://www.w3.org/2000/svg"><defs
   id="defs8" /><sodipodi:namedview
   id="namedview6"
   pagecolor="#ffffff"
   bordercolor="#999999"
   borderopacity="1"
   inkscape:pageshadow="0"
   inkscape:pageopacity="0"
   inkscape:pagecheckerboard="0"
   inkscape:document-units="mm"
   showgrid="false"
   fit-margin-top="0"
   fit-margin-left="0"
   fit-margin-right="0"
   fit-margin-bottom="0"
   inkscape:zoom="32"
   inkscape:cx="7"
   inkscape:cy="3.765625"
   inkscape:window-width="1600"
   inkscape:window-height="847"
   inkscape:window-x="-8"
   inkscape:window-y="-8"
   inkscape:window-maximized="1"
   inkscape:current-layer="svg4"
   inkscape:lockguides="true" />
 <path
   style="fill:#1eb19f;fill-opacity:1;stroke-width:28.1828"
   d="m 204.28391,1.0508125 c 3.63723,0.6715657 6.78838,1.0457751 7.00258,0.8315831 0.2142,-0.214192 2.93563,0.5178994 6.04764,1.6268766 3.11201,1.1089871 6.55695,2.152705 7.65542,2.3193731 1.87647,0.2847238 14.77158,5.9541767 20.6256,9.0682337 3.36377,1.789361 5.61819,1.772544 9.14735,-0.06821 1.54575,-0.806238 5.59012,-2.024324 8.9875,-2.706844 3.39737,-0.68252 6.41105,-1.565092 6.69707,-1.961281 0.28602,-0.3961794 7.44213,-0.9874667 15.90247,-1.3139525 15.19657,-0.5864441 32.35698,1.0913912 37.28293,3.6452885 0.97773,0.506915 3.07565,1.085929 4.66206,1.2867 4.54938,0.575749 25.01759,10.506493 29.08956,14.113644 0.86711,0.768122 1.96158,1.396577 2.43217,1.396577 0.47059,0 1.82556,0.911212 3.01104,2.024913 l 2.15542,2.024913 5.8563,-4.547513 c 7.31309,-5.67873 16.74606,-10.21383 26.21771,-12.604714 8.82838,-2.228499 25.09875,-2.735115 30.46804,-0.94868 2.09643,0.69751 4.05428,1.025613 4.35077,0.729126 0.29647,-0.296478 3.07496,0.604688 6.1744,2.002613 3.09944,1.397916 6.98347,2.936725 8.63118,3.419583 5.05465,1.481249 20.59559,14.498179 24.73527,20.717996 2.07045,3.110832 4.61699,6.663369 5.65897,7.894536 1.04198,1.231157 2.6654,4.601468 3.6076,7.48958 0.94221,2.888102 2.13228,5.781786 2.64461,6.430394 0.51233,0.648617 1.18783,3.794241 1.5011,6.990274 0.31327,3.196044 0.9449,6.290538 1.40362,6.876653 1.31885,1.685136 0.054,17.903392 -2.00797,25.748205 -2.7253,10.36811 -8.52991,21.85146 -14.15857,28.01011 -2.70068,2.95498 -4.91034,5.7761 -4.91034,6.26914 0,0.49305 -3.03328,2.87411 -6.74062,5.29126 -3.70734,2.41714 -6.98203,4.74347 -7.27709,5.16962 -0.29505,0.42615 -3.66536,1.95244 -7.48958,3.39178 -3.82421,1.43932 -7.40248,2.9713 -7.95172,3.40439 -0.54924,0.4331 -3.24549,1.0915 -5.99166,1.46312 -11.9235,1.61354 -11.24244,1.22413 -12.08906,6.91223 -0.4213,2.83067 -0.66518,5.5348 -0.54195,6.00917 0.12324,0.47438 -0.5272,3.39531 -1.44541,6.49096 -0.91821,3.09567 -1.79233,6.62051 -1.94249,7.83303 -0.15016,1.21251 -1.43812,4.74947 -2.86212,7.85991 -1.424,3.11044 -2.5891,6.39226 -2.5891,7.29291 0,0.90065 -2.03166,4.66603 -4.51479,8.36751 -2.48313,3.70148 -4.24068,6.72996 -3.90567,6.72996 0.33501,0 -0.55428,1.38261 -1.97619,3.07246 -1.42191,1.68985 -2.58529,3.37667 -2.58529,3.7485 0,1.39873 -15.71699,17.14391 -21.47013,21.50864 -3.29541,2.50013 -6.68986,5.22322 -7.54323,6.05131 -0.85336,0.82809 -4.22367,2.68708 -7.48957,4.13108 -3.26591,1.444 -6.16271,2.95303 -6.43733,3.3534 -0.27462,0.40037 -3.64493,1.80858 -7.48958,3.12936 -3.84465,1.32078 -7.21496,2.68468 -7.48958,3.03088 -0.88171,1.11158 -29.75199,6.02807 -31.07253,5.29153 -0.3382,-0.18863 -4.15788,-0.3947 -8.48819,-0.45793 -4.3303,-0.0632 -9.84696,-0.53957 -12.25922,-1.05854 -2.41227,-0.51897 -5.55789,-1.10069 -6.99028,-1.29272 -6.11547,-0.81986 -18.97641,-4.99985 -23.82481,-7.74343 -2.88349,-1.63168 -5.24271,-2.66687 -5.24271,-2.30042 0,0.36645 -2.13453,-0.8617 -4.7434,-2.72921 -2.60887,-1.86752 -5.41746,-3.7248 -6.24131,-4.12729 -3.87796,-1.89455 -6.21298,-3.70961 -14.32991,-11.13888 l -8.72834,-7.98888 -5.19761,0.35665 c -2.85868,0.19616 -5.44823,0.75695 -5.75457,1.2462 -0.58178,0.92919 -18.35994,1.2425 -27.99123,0.49329 -3.06909,-0.23874 -7.56284,-0.97052 -9.98611,-1.62618 -2.42327,-0.65566 -5.52939,-1.32633 -6.90248,-1.49038 -4.25063,-0.50789 -19.7378,-6.29613 -23.93455,-8.94542 -2.19277,-1.38423 -4.40481,-2.5168 -4.91564,-2.5168 -0.51083,0 -3.10366,-1.68693 -5.76185,-3.74874 -2.65819,-2.06182 -6.06194,-4.38093 -7.56388,-5.15357 -1.50195,-0.77266 -7.21117,-6.05958 -12.68716,-11.74874 l -9.956351,-10.34392 -4.289222,0.66994 c -2.359068,0.36846 -4.536918,1.0454 -4.839647,1.5043 -0.645102,0.97787 -22.105665,1.47889 -23.606816,0.55113 -0.56114,-0.34679 -2.935716,-0.87122 -5.276829,-1.16536 -2.341123,-0.29415 -6.288541,-1.43364 -8.772046,-2.53221 -2.483494,-1.09857 -5.614708,-2.19674 -6.958239,-2.44037 -1.343531,-0.24364 -2.965544,-0.8356 -3.604485,-1.31548 -12.676543,-9.52091 -20.012297,-16.13409 -22.767994,-20.52536 -1.783099,-2.8414 -3.975259,-5.89606 -4.8714624,-6.78814 C 7.1565806,150.38677 2.0479681,136.26314 0.86240755,128.35384 -1.3524011,113.57801 0.78231855,97.051525 6.3060539,86.209609 7.565272,83.738048 9.165286,80.478962 9.8616276,78.967195 c 0.6963514,-1.511757 3.8838564,-5.55613 7.0833454,-8.987496 3.199478,-3.431356 5.819194,-6.54067 5.82158,-6.909597 0.002,-0.368916 2.812937,-2.47992 6.245661,-4.691103 3.432724,-2.211184 6.690691,-4.394107 7.239927,-4.850931 1.435343,-1.193849 11.512603,-5.265664 13.031889,-5.265664 0.70484,0 1.431319,-0.436203 1.614404,-0.969352 0.493953,-1.438438 18.81753,-3.221617 27.092258,-2.636502 3.956355,0.279751 9.209686,1.223149 11.674058,2.096424 3.560796,1.261814 4.562742,1.323468 4.88036,0.300342 0.219824,-0.708095 3.708351,-4.630737 7.75229,-8.716982 4.04394,-4.086245 7.35262,-7.737465 7.35262,-8.113812 0,-0.376346 3.35345,-3.002513 7.45212,-5.835921 4.09866,-2.833398 8.11481,-5.81433 8.92477,-6.624283 0.80995,-0.809964 3.62638,-2.395857 6.25874,-3.524207 2.63235,-1.12836 5.01979,-2.405903 5.30543,-2.83898 0.28564,-0.433078 3.66497,-1.8126988 7.50962,-3.0658254 3.84465,-1.2531166 7.43965,-2.6277441 7.98888,-3.05472 0.54924,-0.426986 2.79611,-1.0855897 4.99306,-1.4635738 2.19694,-0.3779841 6.69069,-1.3636328 9.9861,-2.1903227 7.51396,-1.8849775 27.4069,-2.20019894 36.21517,-0.5738816 z"
   id="path1020" /><path
   style="fill:#000000"
   id="path1000"
   d="" /><path
   style="fill:#000000"
   id="path980"
   d="" />
</svg>
